<svg width="700" height="700" viewBox="0 0 700 700" fill="none" xmlns="http://www.w3.org/2000/svg">
<g clip-path="url(#clip0)">
<rect width="700" height="700" fill="white"/>
<path d="M0 0H326.351C400.135 0 465.09 14.3334 521.216 43C577.973 71 621.802 111.333 652.703 164C684.234 216.667 700 278.667 700 350C700 421.333 684.234 483.333 652.703 536C621.802 588.667 577.973 629.333 521.216 658C465.09 686 400.135 700 326.351 700H0V0ZM316.892 516C364.82 516 402.973 501.667 431.351 473C460.36 443.667 474.865 402.667 474.865 350C474.865 297.333 460.36 256.667 431.351 228C402.973 198.667 364.82 184 316.892 184H223.243V516H316.892Z" fill="black"/>
<path fill-rule="evenodd" clip-rule="evenodd" d="M223 805L223 513L289 513L289 805L223 805Z" fill="white"/>
</g>
<defs>
<clipPath id="clip0">
<rect width="700" height="700" fill="white"/>
</clipPath>
</defs>
</svg>
